<?xml version="1.0" standalone="no"?>
<!DOCTYPE svg PUBLIC "-//W3C//DTD SVG 20010904//EN"
 "http://www.w3.org/TR/2001/REC-SVG-20010904/DTD/svg10.dtd">
<svg version="1.0" xmlns="http://www.w3.org/2000/svg"
 width="800.000000pt" height="132.000000pt" viewBox="0 0 800.000000 132.000000"
 preserveAspectRatio="xMidYMid meet">

<g transform="translate(0.000000,132.000000) scale(0.100000,-0.100000)"
fill="#000000" stroke="none">
<path d="M1353 1215 c-180 -33 -389 -131 -528 -248 l-30 -26 51 -51 51 -52 68
52 c120 91 302 168 435 185 94 11 90 8 90 86 l0 69 -32 -1 c-18 0 -65 -7 -105
-14z m127 -55 c0 -33 -2 -60 -4 -60 -2 0 -41 -7 -87 -15 -157 -27 -312 -93
-434 -186 l-56 -42 -39 38 c-22 22 -40 42 -40 46 0 13 133 106 210 148 90 48
228 95 336 115 122 22 114 25 114 -44z"/>
<path d="M1640 1162 c0 -79 -4 -76 90 -87 133 -17 315 -94 435 -185 l68 -52
51 51 51 52 -40 33 c-150 127 -391 230 -587 251 l-68 7 0 -70z m186 28 c100
-23 200 -61 284 -107 70 -38 200 -130 200 -142 0 -4 -18 -24 -40 -46 l-39 -38
-55 41 c-121 91 -281 161 -433 187 -47 8 -87 15 -89 15 -2 0 -4 27 -4 61 l0
60 48 -6 c26 -4 83 -15 128 -25z"/>
<path d="M1375 925 c-108 -24 -213 -71 -313 -142 l-64 -45 48 -49 c27 -27 51
-49 55 -49 4 0 34 18 67 41 76 50 167 88 252 103 l65 12 3 72 3 72 -28 -1
c-15 0 -55 -7 -88 -14z m105 -54 l0 -59 -74 -16 c-78 -18 -190 -67 -260 -115
l-43 -30 -43 43 -42 44 58 40 c121 81 265 137 392 151 8 1 12 -17 12 -58z"/>
<path d="M1642 869 l3 -73 65 -12 c85 -15 176 -53 252 -103 33 -23 63 -41 67
-41 4 0 28 22 55 49 l48 49 -64 45 c-113 80 -255 138 -371 152 l-58 7 3 -73z
m158 30 c77 -21 212 -86 275 -135 l36 -27 -42 -43 -42 -43 -43 30 c-70 48
-182 97 -260 115 l-74 16 0 59 0 60 38 -6 c20 -4 71 -16 112 -26z"/>
<path d="M643 773 c-126 -167 -185 -317 -229 -590 l-5 -33 75 0 74 0 7 53 c23
174 91 345 195 483 l39 51 -53 52 -52 51 -51 -67z m93 -97 c-89 -125 -155
-286 -177 -433 l-12 -83 -60 0 -59 0 7 65 c17 166 109 397 211 533 l48 63 42
-42 43 -42 -43 -61z"/>
<path d="M2383 787 l-51 -52 35 -45 c101 -130 175 -313 198 -487 l7 -53 74 0
75 0 -5 33 c-33 202 -59 293 -118 412 -31 62 -100 169 -141 217 l-23 28 -51
-53z m129 -71 c89 -129 167 -336 183 -491 l7 -65 -59 0 -60 0 -12 83 c-22 147
-92 318 -179 437 l-40 55 41 43 42 42 18 -22 c10 -13 36 -49 59 -82z"/>
<path d="M3444 806 c-181 -84 -188 -320 -11 -410 49 -25 70 -30 135 -30 111 0
212 47 212 100 0 24 -33 54 -60 54 -8 0 -37 -11 -64 -25 -56 -28 -101 -32
-150 -11 -103 43 -103 182 0 228 53 23 109 18 149 -14 48 -37 34 -48 -63 -48
-95 0 -112 -7 -112 -50 0 -46 13 -50 172 -50 146 0 148 0 164 25 14 21 14 32
4 77 -16 67 -93 150 -155 167 -69 19 -164 14 -221 -13z"/>
<path d="M1410 636 c-52 -14 -143 -58 -180 -86 l-25 -19 51 -51 50 -51 48 27
c26 15 66 32 89 39 l42 12 3 72 c3 80 4 80 -78 57z m68 -57 l-3 -62 -41 -12
c-22 -7 -60 -23 -83 -36 l-42 -23 -41 42 c-41 40 -42 42 -23 57 46 34 175 88
228 94 4 1 7 -27 5 -60z"/>
<path d="M1642 579 l3 -72 42 -12 c23 -7 63 -24 89 -39 l48 -27 48 48 c26 26
48 50 48 54 0 14 -115 77 -177 98 -102 34 -104 33 -101 -50z m108 34 c46 -15
150 -72 150 -83 0 -3 -18 -24 -40 -45 l-40 -39 -31 18 c-17 10 -54 26 -82 36
l-52 18 -3 62 -3 61 28 -7 c15 -4 48 -13 73 -21z"/>
<path d="M853 568 c-77 -116 -125 -239 -142 -360 l-8 -58 73 0 73 0 6 37 c14
85 57 202 100 272 l46 74 -48 49 c-26 26 -50 48 -53 48 -3 0 -24 -28 -47 -62z
m89 5 c21 -20 38 -40 38 -44 0 -4 -16 -31 -35 -60 -39 -60 -90 -192 -100 -262
l-7 -47 -60 0 -61 0 7 53 c10 75 61 220 101 289 39 66 67 107 75 108 2 0 21
-17 42 -37z"/>
<path d="M2177 582 l-48 -49 46 -74 c43 -70 86 -187 100 -272 l6 -37 73 0 73
0 -8 57 c-10 73 -44 183 -76 248 -27 55 -105 175 -113 175 -3 0 -27 -22 -53
-48z m70 11 c67 -87 144 -270 159 -380 l7 -53 -60 0 -59 0 -13 63 c-17 83 -61
194 -99 251 -18 26 -32 50 -32 54 0 7 71 82 78 82 3 0 11 -8 19 -17z"/>
<path d="M1073 378 c-35 -59 -73 -164 -73 -203 0 -24 2 -25 70 -25 l69 0 12
42 c6 24 22 63 34 89 l24 46 -52 51 -53 52 -31 -52z m99 -94 c-11 -22 -25 -58
-31 -82 l-12 -42 -59 0 c-41 0 -60 4 -60 13 0 28 24 97 57 165 l36 74 45 -45
44 -44 -20 -39z"/>
<path d="M1973 377 l-52 -52 20 -35 c10 -19 26 -59 35 -87 l15 -53 70 0 c69 0
69 0 69 28 -1 39 -44 156 -77 208 l-29 44 -51 -53z m123 -116 c35 -99 35 -101
-36 -101 l-59 0 -12 42 c-6 24 -20 60 -31 82 l-20 39 43 43 43 44 24 -42 c14
-23 36 -71 48 -107z"/>
<path d="M1362 138 l3 -93 200 0 200 0 3 93 3 92 -206 0 -206 0 3 -92z m398 2
l0 -80 -195 0 -195 0 0 80 0 80 195 0 195 0 0 -80z"/>
</g>
</svg>
