<?xml version="1.0" standalone="no"?>
<!DOCTYPE svg PUBLIC "-//W3C//DTD SVG 20010904//EN"
 "http://www.w3.org/TR/2001/REC-SVG-20010904/DTD/svg10.dtd">
<svg version="1.0" xmlns="http://www.w3.org/2000/svg"
 width="800.000000pt" height="132.000000pt" viewBox="0 0 800.000000 132.000000"
 preserveAspectRatio="xMidYMid meet">

<g transform="translate(0.000000,132.000000) scale(0.100000,-0.100000)"
fill="#000000" stroke="none">
<path d="M1353 1215 c-182 -33 -386 -129 -528 -248 l-30 -26 49 -50 50 -50 45
35 c149 113 301 175 514 209 l37 6 0 69 0 70 -32 -1 c-18 0 -65 -7 -105 -14z"/>
<path d="M1630 1162 l0 -71 38 -6 c212 -34 364 -96 513 -209 l45 -35 50 50 49
50 -39 32 c-160 132 -390 231 -588 252 l-68 7 0 -70z"/>
<path d="M4476 984 c-39 -39 -13 -94 45 -94 33 0 59 23 59 54 0 48 -70 75
-104 40z"/>
<path d="M5732 984 c-20 -14 -22 -24 -22 -100 0 -46 -2 -84 -4 -84 -2 0 -23 7
-46 15 -92 32 -205 12 -278 -51 -179 -153 -39 -424 208 -401 31 2 70 12 86 20
25 13 32 13 49 1 30 -22 81 -18 99 8 14 19 16 64 16 289 0 254 -1 267 -21 293
-23 29 -54 33 -87 10z m-105 -281 c97 -45 95 -166 -2 -213 -51 -25 -69 -25
-122 -1 -70 32 -92 104 -53 169 35 57 111 77 177 45z"/>
<path d="M6567 982 c-51 -56 27 -121 91 -76 45 31 15 94 -45 94 -16 0 -37 -8
-46 -18z"/>
<path d="M1350 919 c-95 -24 -205 -76 -288 -136 l-64 -46 51 -50 50 -51 45 32
c82 59 182 99 319 127 26 5 27 7 27 75 l0 70 -32 -1 c-18 0 -67 -9 -108 -20z"/>
<path d="M1630 870 c0 -68 1 -70 28 -75 136 -28 236 -68 318 -127 l45 -32 50
51 51 50 -64 46 c-114 82 -306 157 -400 157 l-28 0 0 -70z"/>
<path d="M2377 792 c-26 -26 -47 -51 -47 -55 0 -4 18 -31 39 -60 90 -120 158
-287 182 -444 l12 -83 74 0 74 0 -6 38 c-32 199 -65 307 -131 431 -35 67 -139
221 -148 221 -1 0 -23 -22 -49 -48z"/>
<path d="M4858 827 c-216 -61 -250 -332 -54 -432 52 -26 70 -30 140 -30 87 0
153 22 195 64 26 26 27 45 1 71 -26 26 -60 25 -106 -2 -46 -27 -124 -29 -170
-5 -17 9 -39 33 -49 53 -44 94 45 196 152 173 36 -7 83 -35 83 -48 0 -5 -38
-10 -84 -13 -94 -5 -116 -16 -116 -59 0 -49 28 -59 170 -59 145 0 173 9 178
57 15 153 -170 278 -340 230z"/>
<path d="M6995 831 c-114 -28 -205 -130 -205 -230 0 -81 66 -173 152 -212 63
-28 181 -33 238 -10 92 37 126 92 78 125 -30 21 -51 20 -101 -6 -80 -41 -177
-21 -217 45 -25 41 -25 73 0 115 42 69 153 90 225 42 38 -25 77 -25 98 -2 70
77 -117 170 -268 133z"/>
<path d="M7575 831 c-52 -13 -111 -49 -140 -83 -44 -52 -57 -94 -53 -170 5
-87 40 -140 124 -183 50 -26 68 -30 138 -30 70 0 89 4 141 30 71 35 91 71 60
105 -23 25 -64 26 -107 1 -94 -54 -202 -23 -227 66 -34 119 132 209 225 122
l26 -24 -91 -6 c-99 -6 -121 -17 -121 -60 0 -50 28 -59 175 -59 157 0 175 8
175 73 -1 81 -64 169 -147 203 -41 18 -138 26 -178 15z"/>
<path d="M638 767 c-121 -164 -188 -338 -222 -574 l-6 -43 73 0 74 0 12 83
c24 157 92 324 182 444 21 29 39 56 39 60 0 12 -83 93 -95 93 -6 0 -32 -28
-57 -63z"/>
<path d="M3444 806 c-181 -84 -188 -320 -11 -410 49 -25 70 -30 135 -30 111 0
212 47 212 100 0 24 -33 54 -60 54 -8 0 -37 -11 -64 -25 -56 -28 -101 -32
-150 -11 -103 43 -103 182 0 228 53 23 109 18 149 -14 48 -37 34 -48 -63 -48
-95 0 -112 -7 -112 -50 0 -46 13 -50 172 -50 146 0 148 0 164 25 14 21 14 32
4 77 -16 67 -93 150 -155 167 -69 19 -164 14 -221 -13z"/>
<path d="M4020 808 c-120 -62 -95 -213 42 -248 119 -31 148 -41 148 -55 0 -41
-86 -43 -173 -5 -41 18 -51 19 -75 8 -22 -11 -27 -20 -27 -48 0 -33 4 -37 60
-65 53 -26 71 -30 145 -30 131 0 200 48 200 139 0 72 -47 112 -175 146 -91 25
-103 33 -85 55 16 19 70 19 117 0 19 -8 45 -15 57 -15 32 0 66 28 66 54 0 72
-200 114 -300 64z"/>
<path d="M4476 806 l-26 -25 0 -215 c0 -244 3 -236 -84 -236 -38 0 -48 -4 -62
-26 -16 -24 -16 -27 3 -52 17 -23 28 -27 79 -30 72 -3 138 26 171 77 22 33 23
42 23 266 0 249 0 247 -52 260 -21 5 -33 1 -52 -19z"/>
<path d="M5978 819 c-16 -9 -18 -30 -18 -213 0 -184 2 -204 18 -219 25 -23 68
-21 92 3 18 18 20 33 20 141 0 66 5 129 10 140 15 26 62 49 104 49 25 0 45 -9
68 -29 l33 -29 5 -137 c5 -146 9 -155 61 -155 56 0 60 13 61 169 0 140 -1 144
-29 189 -53 86 -178 125 -293 92 -22 -6 -38 -6 -44 0 -13 13 -66 12 -88 -1z"/>
<path d="M6590 823 c-37 -13 -40 -33 -40 -228 0 -173 2 -194 18 -208 25 -22
75 -21 95 1 15 16 17 46 17 208 0 137 -4 195 -12 207 -14 18 -55 29 -78 20z"/>
<path d="M1377 626 c-65 -23 -167 -81 -167 -95 0 -4 22 -28 49 -55 l49 -48 29
21 c16 12 56 30 89 40 l59 19 3 71 c3 68 2 71 -20 71 -13 0 -53 -11 -91 -24z"/>
<path d="M1632 579 l3 -71 59 -19 c33 -10 73 -28 89 -40 l29 -21 49 48 c27 27
49 51 49 55 0 14 -115 77 -177 98 -102 34 -104 33 -101 -50z"/>
<path d="M839 548 c-56 -87 -113 -231 -124 -313 -4 -28 -9 -58 -12 -67 -4 -16
4 -18 70 -18 l74 0 12 67 c16 89 54 184 103 257 l39 59 -48 49 c-26 26 -50 48
-54 48 -4 0 -31 -37 -60 -82z"/>
<path d="M2167 582 l-48 -49 39 -59 c49 -73 87 -168 103 -257 l12 -67 74 0
c66 0 74 2 70 18 -3 9 -8 39 -12 67 -11 82 -68 226 -124 313 -29 45 -56 82
-60 82 -4 0 -28 -22 -54 -48z"/>
<path d="M1075 386 c-33 -57 -64 -136 -74 -193 l-8 -43 72 0 73 0 6 34 c4 19
19 59 35 90 l27 55 -52 52 -52 51 -27 -46z"/>
<path d="M1966 381 l-49 -50 26 -59 c15 -33 30 -74 33 -91 l7 -31 72 0 72 0
-8 43 c-10 57 -41 136 -73 192 -15 25 -28 45 -29 45 -2 0 -25 -22 -51 -49z"/>
<path d="M1350 140 l0 -90 210 0 210 0 0 90 0 90 -210 0 -210 0 0 -90z"/>
</g>
</svg>
