<?xml version="1.0" standalone="no"?>
<!DOCTYPE svg PUBLIC "-//W3C//DTD SVG 20010904//EN"
 "http://www.w3.org/TR/2001/REC-SVG-20010904/DTD/svg10.dtd">
<svg version="1.0" xmlns="http://www.w3.org/2000/svg"
 width="800.000000pt" height="132.000000pt" viewBox="0 0 800.000000 132.000000"
 preserveAspectRatio="xMidYMid meet">

<g transform="translate(0.000000,132.000000) scale(0.100000,-0.100000)"
fill="#000000" stroke="none">
<path d="M1305 1223 c-60 -9 -163 -44 -175 -58 -16 -19 -1 -79 29 -117 22 -28
23 -28 189 3 124 23 286 25 403 5 46 -8 106 -16 132 -18 l49 -3 35 63 c24 43
32 67 25 74 -6 6 -45 19 -89 30 -65 16 -119 20 -323 23 -135 2 -258 1 -275 -2z"/>
<path d="M2151 1052 c-36 -76 -28 -97 51 -140 112 -62 178 -112 273 -206 92
-92 141 -161 194 -273 37 -78 91 -244 91 -281 0 -43 17 -52 96 -52 96 0 100 5
80 112 -9 46 -23 101 -31 123 -9 22 -19 49 -22 59 -14 42 -115 228 -149 273
-147 197 -271 307 -449 397 -94 48 -106 47 -134 -12z"/>
<path d="M830 1049 c-204 -125 -315 -220 -414 -354 -120 -162 -216 -399 -216
-533 l0 -62 73 0 c39 0 77 4 83 8 6 4 15 27 19 52 7 43 46 173 64 215 86 198
214 356 374 461 40 26 96 63 125 82 28 19 52 40 51 46 0 6 -13 31 -28 56 -23
38 -33 45 -62 48 -21 1 -47 -6 -69 -19z"/>
<path d="M4470 980 c-24 -24 -25 -38 -4 -68 26 -38 109 -25 114 18 8 63 -64
96 -110 50z"/>
<path d="M5724 979 c-14 -16 -20 -40 -22 -99 l-4 -78 -45 15 c-59 20 -164 13
-218 -15 -155 -79 -181 -267 -53 -376 73 -63 173 -81 275 -51 45 13 53 13 80
0 36 -18 76 -8 92 24 7 12 11 119 11 290 0 258 -1 272 -20 291 -26 26 -72 26
-96 -1z m-96 -279 c80 -36 93 -130 26 -189 -29 -26 -43 -31 -87 -31 -61 1 -91
15 -118 56 -39 59 -15 133 54 165 53 23 71 23 125 -1z"/>
<path d="M6567 982 c-36 -40 -7 -92 50 -92 34 0 63 26 63 57 0 47 -80 72 -113
35z"/>
<path d="M1348 946 c-114 -25 -123 -35 -88 -110 31 -69 37 -71 146 -57 53 6
163 10 244 8 l148 -3 34 63 c32 63 33 64 13 76 -37 22 -79 27 -255 32 -127 3
-193 1 -242 -9z"/>
<path d="M2011 800 c-28 -54 -27 -93 2 -108 96 -50 175 -111 252 -195 87 -95
111 -138 152 -271 18 -60 39 -114 46 -118 6 -4 47 -8 90 -8 60 0 79 3 83 15 8
19 -41 182 -79 265 -41 90 -109 184 -186 259 -127 122 -246 201 -304 201 -31
0 -38 -5 -56 -40z"/>
<path d="M4079 831 c-89 -17 -144 -81 -135 -156 7 -54 56 -99 133 -120 32 -9
75 -20 96 -26 44 -12 49 -35 10 -50 -33 -12 -81 -5 -147 24 -44 18 -51 19 -74
6 -39 -22 -46 -55 -19 -83 36 -36 128 -66 204 -66 119 0 193 56 193 146 0 75
-52 116 -188 149 -78 18 -91 28 -72 50 16 19 71 19 117 0 19 -8 48 -15 63 -15
51 0 79 60 43 92 -39 34 -161 61 -224 49z"/>
<path d="M4842 821 c-107 -37 -182 -147 -168 -247 24 -177 225 -266 408 -182
70 32 90 64 64 103 -21 31 -68 34 -111 5 -39 -26 -134 -27 -176 -3 -47 28 -67
110 -39 162 31 58 135 80 198 41 51 -31 40 -40 -48 -40 -73 0 -83 -3 -105 -25
-31 -30 -31 -40 0 -70 23 -24 29 -25 157 -25 160 0 178 7 178 73 -1 121 -125
228 -264 227 -23 -1 -65 -9 -94 -19z"/>
<path d="M5992 830 c-35 -15 -42 -50 -42 -225 0 -207 9 -235 77 -235 53 0 63
25 63 168 0 117 1 124 24 147 44 44 124 45 164 2 18 -20 21 -37 24 -155 3
-119 5 -135 22 -148 28 -20 73 -17 97 7 19 19 20 30 17 152 -4 157 -18 194
-91 244 -67 45 -140 58 -214 40 -49 -13 -60 -13 -77 -1 -23 16 -32 16 -64 4z"/>
<path d="M6969 824 c-57 -17 -136 -86 -160 -139 -69 -151 71 -325 260 -325
138 0 255 87 193 143 -24 22 -54 21 -102 -3 -93 -47 -201 -15 -230 68 -14 40
-13 45 5 80 40 73 138 96 223 53 51 -26 84 -27 105 -3 77 85 -135 175 -294
126z"/>
<path d="M7550 825 c-25 -8 -65 -31 -88 -51 -143 -122 -105 -327 72 -393 98
-36 217 -22 294 36 80 60 -2 137 -90 83 -24 -14 -51 -20 -96 -20 -59 0 -66 2
-98 34 -28 28 -34 42 -34 75 0 83 49 131 132 131 43 0 108 -30 108 -50 0 -6
-30 -10 -72 -10 -91 0 -122 -14 -126 -57 -5 -54 21 -63 176 -63 128 0 134 1
158 25 21 21 24 31 18 62 -28 156 -192 248 -354 198z"/>
<path d="M970 799 c-101 -57 -253 -196 -323 -296 -80 -114 -143 -287 -132
-359 l6 -44 68 0 c84 0 91 7 120 113 12 44 29 93 38 110 55 109 163 231 262
297 76 51 111 80 111 93 0 7 -12 35 -27 64 -33 63 -45 65 -123 22z"/>
<path d="M3444 806 c-181 -84 -188 -320 -11 -410 49 -25 70 -30 135 -30 111 0
212 47 212 100 0 24 -33 54 -60 54 -8 0 -37 -11 -64 -25 -56 -28 -101 -32
-150 -11 -103 43 -103 182 0 228 53 23 109 18 149 -14 48 -37 34 -48 -63 -48
-95 0 -112 -7 -112 -50 0 -46 13 -50 172 -50 146 0 148 0 164 25 14 21 14 32
4 77 -16 67 -93 150 -155 167 -69 19 -164 14 -221 -13z"/>
<path d="M4475 805 c-25 -24 -25 -24 -25 -239 0 -243 2 -237 -80 -233 -33 1
-46 -3 -61 -22 -24 -30 -24 -46 1 -71 16 -16 33 -20 80 -20 71 0 115 16 151
56 43 48 49 82 49 301 0 203 0 204 -25 228 -13 14 -33 25 -45 25 -11 0 -32
-11 -45 -25z"/>
<path d="M6572 814 c-21 -15 -22 -20 -22 -213 0 -179 2 -199 18 -214 25 -22
75 -21 95 1 15 16 17 46 17 210 0 179 -1 193 -20 212 -24 24 -57 26 -88 4z"/>
<path d="M1418 663 c-34 -4 -38 -7 -38 -32 0 -16 9 -49 20 -75 l21 -46 108 0
c121 0 128 3 172 89 22 42 22 44 4 57 -18 14 -187 17 -287 7z"/>
<path d="M1875 540 c-36 -72 -33 -83 33 -129 31 -22 71 -53 89 -68 40 -36 97
-127 114 -181 7 -23 18 -47 25 -53 7 -5 47 -9 91 -7 l78 3 -3 35 c-7 95 -78
217 -187 324 -65 63 -164 126 -200 126 -8 0 -26 -22 -40 -50z"/>
<path d="M1126 550 c-16 -10 -60 -46 -98 -80 -111 -100 -188 -233 -188 -325
l0 -45 73 0 c78 0 97 10 112 61 4 13 22 52 41 86 31 56 64 90 168 176 l29 24
-17 44 c-32 81 -63 96 -120 59z"/>
<path d="M1295 185 c-16 -15 -25 -36 -25 -55 0 -19 9 -40 25 -55 l24 -25 226
0 226 0 24 25 c16 15 25 36 25 55 0 19 -9 40 -25 55 l-24 25 -226 0 -226 0
-24 -25z"/>
</g>
</svg>
