<?xml version="1.0" standalone="no"?>
<!DOCTYPE svg PUBLIC "-//W3C//DTD SVG 20010904//EN"
 "http://www.w3.org/TR/2001/REC-SVG-20010904/DTD/svg10.dtd">
<svg version="1.0" xmlns="http://www.w3.org/2000/svg"
 width="800.000000pt" height="132.000000pt" viewBox="0 0 800.000000 132.000000"
 preserveAspectRatio="xMidYMid meet">

<g transform="translate(0.000000,132.000000) scale(0.100000,-0.100000)"
fill="#000000" stroke="none">
<path d="M3444 806 c-181 -84 -188 -320 -11 -410 49 -25 70 -30 135 -30 111 0
212 47 212 100 0 24 -33 54 -60 54 -8 0 -37 -11 -64 -25 -56 -28 -101 -32
-150 -11 -103 43 -103 182 0 228 53 23 109 18 149 -14 48 -37 34 -48 -63 -48
-95 0 -112 -7 -112 -50 0 -46 13 -50 172 -50 146 0 148 0 164 25 14 21 14 32
4 77 -16 67 -93 150 -155 167 -69 19 -164 14 -221 -13z"/>
</g>
</svg>
